<?xml version="1.0" encoding="UTF-8" standalone="no"?>
<svg
   version="1.1"
   style="display:block"
   viewBox="0 0 2048 2028"
   width="1000"
   height="990"
   preserveAspectRatio="none"
   id="svg13"
   sodipodi:docname="054194b5-44db-4389-89b0-39d1d73138f3.svg"
   xmlns:inkscape="http://www.inkscape.org/namespaces/inkscape"
   xmlns:sodipodi="http://sodipodi.sourceforge.net/DTD/sodipodi-0.dtd"
   xmlns="http://www.w3.org/2000/svg"
   xmlns:svg="http://www.w3.org/2000/svg">
  <defs
     id="defs13" />
  <sodipodi:namedview
     id="namedview13"
     pagecolor="#ffffff"
     bordercolor="#111111"
     borderopacity="1"
     inkscape:showpageshadow="0"
     inkscape:pageopacity="0"
     inkscape:pagecheckerboard="1"
     inkscape:deskcolor="#d1d1d1">
    <inkscape:page
       x="0"
       y="0"
       width="2048"
       height="2028"
       id="page2"
       margin="0"
       bleed="0" />
  </sodipodi:namedview>
  <path
     fill="#393939"
     d="m 1391.86,283.241 c -2.46,-0.025 -4.91,-0.088 -7.37,-0.189 -4.33,-0.205 -13.97,-1.362 -15.85,-5.617 -6.04,-13.71 -7.53,-69.887 3.37,-79.351 6.05,-1.783 13.29,-2.207 19.58,-2.214 53,-0.062 106.05,-0.03 159.04,-0.027 l 313.02,0.024 125.12,0.01 c 8.05,0 16.22,-0.206 24.27,-0.035 15.97,0.339 25.32,-3.825 34.96,11.326 v 65.479 c -8.43,11.272 -12.17,10.487 -25.86,10.568 l -0.06,925.355 0.04,292.35 0.02,94.71 c 0.01,16.8 0.23,33.65 -0.32,50.44 -0.34,10.34 -3.31,18.47 -10.69,25.89 -5.34,5.38 -21.28,15.71 -28.47,10.45 -3.07,-7.02 -3.82,-11.82 -6.32,-18.49 -3.16,-8.45 -7.94,-18.89 -12.02,-26.93 -33.53,-65.52 -90.04,-116.37 -158.72,-142.82 -149.54,-58.63 -323.11,18.61 -380.9,167.82 -3.34,8.62 -6.86,18.07 -8.69,27.13 l -24.06,-0.01 -0.07,-279.9 c 0,-50.64 -0.58,-102.48 0.05,-153.04 l -673.858,-0.08 c 0.08,120.75 -1.498,245.09 0.086,365.59 -38.825,-67.18 -102.61,-116.31 -177.476,-136.7 -74.775,-20.15 -154.472,-10.19 -221.986,27.75 -66.082,37.73 -115.236,99.3 -137.393,172.1 -22.075,-6.57 -39.807,-25.58 -40.999,-49.14 -0.735,-14.53 -0.42,-29.22 -0.425,-43.78 l -0.003,-80.68 -0.006,-1012.262 c 0.056,-25.228 3.642,-43.624 22.59,-62.103 23.104,-22.533 45.234,-22.211 74.825,-22.136 l 42.174,0.153 299.06,0.025 139.572,-0.051 0.015,353.116 673.764,-0.032 z m 443.2,583.751 c 43.68,-7.074 77,-34.15 83.78,-80.11 l 1.16,-50.359 -0.12,-82.823 0.06,-99.053 c 0.03,-49.757 4.52,-94.666 -40.91,-127.488 -12.24,-8.963 -26.5,-14.786 -41.52,-16.958 l -56.62,-1.275 -90.52,0.012 -65.85,-0.048 -32.87,0.456 c -47.31,6.069 -77.3188,40.63893 -82.662,88.58773 l -5.818,52.20927 -0.01,93.11 -0.01,90.689 c -0.01,46.306 -4.34,82.777 37.27,114.322 12.25,9.181 26.52,15.288 41.61,17.809 9.13,1.463 24.81,1.084 34.5,1.069 l 50.45,-0.1 z"
     id="path1"
     sodipodi:nodetypes="ccccccccsccccccccccccccccccccccscccccccccccccccsccccccscccccccc"
     style="display:inline" />
  <path
     fill="#ac7550"
     d="m 1391.86,283.241 c -2.46,-0.025 -4.91,-0.088 -7.37,-0.189 -4.33,-0.205 -13.97,-1.362 -15.85,-5.617 -6.04,-13.71 -7.53,-69.887 3.37,-79.351 6.05,-1.783 13.29,-2.207 19.58,-2.214 53,-0.062 106.05,-0.03 159.04,-0.027 l 313.02,0.024 125.12,0.01 c 8.05,0 16.22,-0.206 24.27,-0.035 15.97,0.339 25.32,-3.825 34.96,11.326 v 65.479 c -8.43,11.272 -12.17,10.487 -25.86,10.568 -94.95,-1.331 -192.86,-0.179 -288.01,-0.183 z"
     id="path2" />
  <path
     fill="#ac7550"
     d="m 67.8961,846.215 c -0.519,-70.203 3.203,-70.858 72.0489,-70.426 l 0.029,476.271 c -69.9525,0.51 -72.3997,-1.48 -72.1112,-70.95 -6.5183,-7.71 -12.2943,-13.12 -18.8885,-21.74 C 18.4395,1119.48 7.17715,1084.27 0,1035.88 v -37.693 c 1.92846,-10.584 1.96149,-20.884 4.7748,-33.351 11.0208,-48.837 29.44,-82.805 63.1213,-118.621 z"
     id="path3" />
  <path
     fill="#ac7550"
     d="m 1591.65,409.346 32.87,-0.456 65.85,0.048 90.52,-0.012 56.62,1.275 c 15.02,2.172 29.28,7.995 41.52,16.958 45.43,32.822 40.94,77.731 40.91,127.488 l -0.06,99.053 0.12,82.823 -1.16,50.359 c -6.78,45.96 -40.1,73.036 -83.78,80.11 l -168.08,0.05 -50.45,0.1 -34.5,-1.069 c -15.09,-2.521 -29.36,-8.628 -41.61,-17.809 -41.61,-31.545 -37.28,-68.016 -37.27,-114.322 l 0.01,-90.689 0.01,-93.11 1.21,-55.282 c 6.25,-47.839 39.96,-79.446 87.27,-85.515 z m 147.6,404.573 55.48,0.099 c 22.51,0.1 44.34,3.955 62.29,-12.083 16.09,-19.8 11.27,-33.565 11.84,-57.199 l -0.72,-77.722 0.67,-116.595 -0.58,-53.372 c -0.5,-9.25 -7.92,-21.154 -15.36,-26.933 -5.34,-4.078 -11.54,-6.872 -18.13,-8.166 l -37.3,-1.124 -58.4,0.247 0.19,132.97 z m -88.75,-0.007 33.46,-0.009 -0.07,-352.848 -93.82,0.14 c -42.24,10.332 -34.84,47.921 -34.85,81.694 l -0.02,75.009 v 100.893 c 0.01,25.926 -7.67,81.052 23.46,91.625 18.57,6.307 51.14,3.418 71.84,3.496 z"
     id="path4"
     sodipodi:nodetypes="ccccccscccccccccccccccccccccccccccccccccsc" />
  <path
     fill="#835738"
     d="m 442.494,2028 c -9.195,-2.2 -23.885,-3.73 -34.341,-5.91 -31.775,-6.92 -61.97,-19.74 -89.017,-37.79 -56.479,-38.1 -95.53,-97.05 -108.58,-163.92 -13.222,-67.88 1.132,-138.23 39.891,-195.5 40.495,-58.93 96.785,-95.23 167.167,-108.09 67.443,-12.01 136.893,3.29 193.055,42.51 56.183,39.71 94.315,100.09 106.021,167.88 l 0.765,2.31 36.443,0.49 73.765,-0.09 c 5.601,-56.87 46.179,-124.49 90.641,-159.76 53.824,-42.69 121.606,-62.48 189.676,-55.65 67.94,7.16 130.23,41.1 173.08,94.3 26.58,32.84 48.66,78.8 53.57,121.11 l 110.83,-0.05 c 10.92,-68.78 48.92,-130.33 105.52,-170.91 54.08,-38.41 128.01,-53.49 193.27,-41.92 67.1,11.96 126.69,50.15 165.6,106.12 38.96,56.07 54.17,125.28 42.29,192.52 -11.68,67.25 -49.78,127.02 -105.81,166 -28.51,19.75 -60.68,33.58 -94.63,40.68 -10.44,2.19 -23.91,3.46 -33.23,5.67 h -36.93 c -10.8,-2.3 -24.33,-3.4 -36.37,-5.9 -38.98,-8.22 -75.49,-25.46 -106.6,-50.35 -47.47,-38.13 -86.64,-100.53 -93.16,-161.6 l -110.86,0.87 c -4.78,57.61 -44.67,120.13 -88.31,156.92 -31.62,26.37 -69.1,44.8 -109.3,53.73 -11.24,2.47 -26.97,4.01 -36.49,6.33 h -37.97 c -8.58,-2.26 -27.96,-4.23 -38.89,-6.68 -42.46,-9.65 -81.763,-29.97 -114.194,-59.04 -35.098,-31.42 -60.87,-71.89 -74.492,-116.98 -3.059,-10.04 -6.805,-24.62 -7.306,-35.08 l -109.949,-0.11 c -12.931,70.95 -47.856,130.41 -107.468,171.89 -27.465,19.03 -58.357,32.56 -90.968,39.83 -10.123,2.22 -25.914,3.98 -34.32,6.17 z"
     id="path5"
     style="display:inline"
     sodipodi:nodetypes="ccccccccccccccccccccccccccccccccccccccccc" />
  <path
     fill="#ac7550"
     d="m 442.494,2028 c -9.195,-2.2 -23.885,-3.73 -34.341,-5.91 -31.775,-6.92 -61.97,-19.74 -89.017,-37.79 -56.479,-38.1 -95.53,-97.05 -108.58,-163.92 -13.222,-67.88 1.132,-138.23 39.891,-195.5 40.495,-58.93 96.785,-95.23 167.167,-108.09 67.443,-12.01 136.893,3.29 193.055,42.51 56.183,39.71 94.315,100.09 106.021,167.88 l -1.052,2.26 c -5.643,1.14 -48.885,0.55 -57.755,0.55 l -143.389,0.02 c -13.894,-14.75 -27.964,-24.02 -49.044,-24.72 -17.648,-0.63 -34.801,5.9 -47.555,18.11 -12.399,11.79 -19.579,28.04 -19.948,45.15 -0.395,17.1 6.011,33.65 17.812,46.03 12.234,12.73 29.071,20.01 46.725,20.2 18.925,0.14 35.08,-7.56 48.269,-20.8 1.302,-1.31 2.587,-2.63 3.854,-3.97 66.768,0.01 136.544,-1.07 203.042,0.1 -12.931,70.95 -47.856,130.41 -107.468,171.89 -27.465,19.03 -58.357,32.56 -90.968,39.83 -10.123,2.22 -25.914,3.98 -34.32,6.17 z"
     id="path6" />
  <path
     fill="#ac7550"
     d="m 1445.46,1729.84 c 10.92,-68.78 48.92,-130.33 105.52,-170.91 54.08,-38.41 128.01,-53.49 193.27,-41.92 67.1,11.96 126.69,50.15 165.6,106.12 38.96,56.07 54.17,125.28 42.29,192.52 -11.68,67.25 -49.78,127.02 -105.81,166 -28.51,19.75 -60.68,33.58 -94.63,40.68 -10.44,2.19 -23.91,3.46 -33.23,5.67 h -36.93 c -10.8,-2.3 -24.33,-3.4 -36.37,-5.9 -38.98,-8.22 -75.49,-25.46 -106.6,-50.35 -47.47,-38.13 -86.64,-100.53 -93.16,-161.6 66.22,-1.16 135.51,-0.11 201.97,-0.1 13.94,14.85 29.07,24.26 50.02,24.85 17.11,0.4 33.68,-5.98 46.09,-17.77 12.64,-12.19 19.94,-28.89 20.29,-46.45 0.6,-52.06 -56.8,-83.05 -100.4,-54.75 -6.43,4.18 -10.54,8.49 -15.84,14.05 -66.86,0.04 -135.35,0.85 -202.08,-0.14 z"
     id="path7" />
  <path
     fill="#ac7550"
     d="m 827.598,1810.22 c 66.904,-0.83 134.87,-0.21 201.852,-0.18 14.13,14.97 28.33,24.13 49.73,24.73 17.46,0.4 34.36,-6.14 46.98,-18.21 2.2,-2.13 4.37,-4.3 6.49,-6.52 20.2,-0.01 195.98,-1.47 201.9,0.98 -4.78,57.61 -44.67,120.13 -88.31,156.92 -31.62,26.37 -69.1,44.8 -109.3,53.73 -11.24,2.47 -26.97,4.01 -36.49,6.33 h -37.97 c -8.58,-2.26 -27.96,-4.23 -38.89,-6.68 -42.46,-9.65 -81.763,-29.97 -114.194,-59.04 -35.098,-31.42 -60.87,-71.89 -74.492,-116.98 -3.059,-10.04 -6.805,-24.62 -7.306,-35.08 z"
     id="path8" />
  <path
     fill="#ac7550"
     d="m 827.663,1729.89 c 5.601,-56.87 46.179,-124.49 90.641,-159.76 53.824,-42.69 121.606,-62.48 189.676,-55.65 67.94,7.16 130.23,41.1 173.08,94.3 26.58,32.84 48.66,78.8 53.57,121.11 -66.58,1 -135.34,0.12 -202.09,0.13 -2,-2.42 -3.99,-4.39 -6.26,-6.55 -12.76,-12.17 -29.86,-18.73 -47.49,-18.21 -20.94,0.79 -35.4,9.79 -49.14,24.74 z"
     id="path9" />
  <path
     fill="#ac7550"
     d="m 1696.93,1730.34 c 21.9,-1.45 40.84,15.07 42.38,36.96 1.53,21.88 -14.92,40.89 -36.81,42.5 -21.99,1.63 -41.11,-14.93 -42.65,-36.93 -1.55,-22 15.08,-41.06 37.08,-42.53 z"
     id="path10" />
  <path
     fill="#ac7550"
     d="m 1079.18,1730.37 c 21.86,-1.36 40.71,15.21 42.17,37.07 1.47,21.85 -15,40.79 -36.85,42.36 -22.01,1.6 -41.11,-15.02 -42.59,-37.04 -1.48,-22.02 15.24,-41.03 37.27,-42.39 z"
     id="path11" />
  <path
     fill="#ac7550"
     d="m 460.937,1730.37 c 21.844,-1.4 40.719,15.11 42.249,36.94 1.529,21.84 -14.86,40.81 -36.686,42.47 -22.012,1.67 -41.181,-14.88 -42.724,-36.91 -1.543,-22.02 15.131,-41.09 37.161,-42.5 z"
     id="path12" />
  <path
     fill="#ac7550"
     d="m 322.247,0 h 213.164 l 55.727,67.2073 c 7.682,7.428 6.341,30.2498 -1.218,38.1887 l -53.871,60.529 0.076,196.712 c 27.246,1.365 43.313,26.625 42.394,52.27 l -299.06,-0.025 c 0.357,-26.965 13.143,-50.527 42.537,-52.397 L 321.801,166.509 270.604,108.111 C 261.652,97.4516 257.156,77.0777 267.157,66.4379 Z"
     id="path13"
     sodipodi:nodetypes="ccccccccccccc" />
</svg>
