<?xml version="1.0" encoding="UTF-8" standalone="no"?>
<svg
   viewBox="0 0 160 230"
   width="160"
   height="230"
   version="1.1"
   id="svg9"
   sodipodi:docname="logov2-draft.svg"
   inkscape:version="1.4.3 (0d15f75, 2025-12-25)"
   xmlns:inkscape="http://www.inkscape.org/namespaces/inkscape"
   xmlns:sodipodi="http://sodipodi.sourceforge.net/DTD/sodipodi-0.dtd"
   xmlns="http://www.w3.org/2000/svg"
   xmlns:svg="http://www.w3.org/2000/svg">
  <sodipodi:namedview
     id="namedview9"
     pagecolor="#ffffff"
     bordercolor="#111111"
     borderopacity="1"
     inkscape:showpageshadow="0"
     inkscape:pageopacity="0"
     inkscape:pagecheckerboard="1"
     inkscape:deskcolor="#d1d1d1"
     showgrid="false"
     inkscape:zoom="3.5086957"
     inkscape:cx="-21.802974"
     inkscape:cy="124.1202"
     inkscape:window-width="2560"
     inkscape:window-height="1369"
     inkscape:window-x="-8"
     inkscape:window-y="-8"
     inkscape:window-maximized="1"
     inkscape:current-layer="svg9">
    <inkscape:grid
       id="grid9"
       units="px"
       originx="0"
       originy="0"
       spacingx="1"
       spacingy="1"
       empcolor="#0099e5"
       empopacity="0.30196078"
       color="#0099e5"
       opacity="0.14901961"
       empspacing="5"
       enabled="true"
       visible="false" />
  </sodipodi:namedview>
  <defs
     id="defs1">
    <mask
       id="pinMask">
      <path
         d="M80 0 C35 0 0 35 0 80 C0 130 80 230 80 230 C80 230 160 130 160 80 C160 35 125 0 80 0Z"
         fill="white"
         id="path1" />
      <circle
         cx="80"
         cy="80.5"
         r="71"
         fill="black"
         id="circle1" />
    </mask>
    <mask
       id="trainMask">
      <rect
         x="42"
         y="30.3"
         width="76"
         height="79.7"
         rx="17.9"
         ry="23.065"
         fill="white"
         id="rect1" />
      <rect
         x="50"
         y="45.14"
         width="60"
         height="34.845"
         rx="10.18"
         ry="9.9"
         fill="black"
         id="rect2" />
      <rect
         x="65"
         y="35.1"
         width="30"
         height="4.78"
         rx="1.37"
         ry="1.57"
         fill="black"
         id="rect3" />
      <circle
         cx="60"
         cy="95"
         r="9.8"
         fill="black"
         id="circle3" />
      <circle
         cx="100"
         cy="95"
         r="9.8"
         fill="black"
         id="circle4" />
    </mask>
    <clipPath
       id="circleClip">
      <circle
         cx="80"
         cy="80.5"
         r="71"
         id="circle5" />
    </clipPath>
  </defs>
  <!-- Pin shape with circle punched out -->
  <path
     d="M80 0 C35 0 0 35 0 80 C0 130 80 230 80 230 C80 230 160 130 160 80 C160 35 125 0 80 0Z"
     fill="#ffdae8"
     mask="url(#pinMask)"
     id="path5" />
  <!-- Train and track clipped to circle -->
  <g
     clip-path="url(#circleClip)"
     id="g9">
    <!-- Track rails in secondary color -->
    <line
       x1="59"
       y1="108.5"
       x2="25.5"
       y2="152"
       stroke="#c4a0ad"
       stroke-width="2.2"
       id="line2" />
    <line
       x1="101"
       y1="108.5"
       x2="134.5"
       y2="152"
       stroke="#c4a0ad"
       stroke-width="2.2"
       id="line2-5" />
    <!-- Track ties in secondary color -->
    <line
       x1="59.390026"
       y1="110.48625"
       x2="100.60997"
       y2="110.48625"
       stroke="#c4a0ad"
       stroke-width="1.2"
       id="line4-1"
       style="stroke:#c4a0ad;stroke-opacity:1" />
    <line
       x1="51.2"
       y1="118"
       x2="108.8"
       y2="118"
       stroke="#c4a0ad"
       stroke-width="1.4"
       id="line4" />
    <line
       x1="42"
       y1="131.4"
       x2="118"
       y2="131.4"
       stroke="#c4a0ad"
       stroke-width="1.5"
       id="line6" />
    <!-- Nodes at intersections -->
    <ellipse
       cx="51.7"
       cy="118"
       rx="5.23"
       ry="2.05"
       fill="#c4a0ad"
       id="node3" />
    <ellipse
       cx="108.3"
       cy="118"
       rx="5.23"
       ry="2.05"
       fill="#c4a0ad"
       id="node4" />
    <ellipse
       cx="41.4"
       cy="131.4"
       rx="6.11"
       ry="2.49"
       fill="#c4a0ad"
       id="node5" />
    <ellipse
       cx="118.6"
       cy="131.4"
       rx="6.11"
       ry="2.49"
       fill="#c4a0ad"
       id="node6" />
    <!-- Train body with cutouts -->
    <rect
       x="42"
       y="30.3"
       width="76"
       height="79.7"
       rx="17.9"
       ry="23.065"
       fill="#ffdae8"
       mask="url(#trainMask)"
       id="rect7" />
  </g>
  <rect
     style="fill:#ffdae8;fill-opacity:1;stroke:none;stroke-width:5.54232;stroke-miterlimit:1;stroke-opacity:1"
     id="rect6"
     width="4.988"
     height="4.133"
     x="100.75"
     y="107.72"
     rx="1.06"
     ry="0.855" />
  <rect
     style="fill:#ffdae8;fill-opacity:1;stroke:none;stroke-width:5.54232;stroke-miterlimit:1;stroke-opacity:1"
     id="rect6-2"
     width="4.988"
     height="4.133"
     x="54.262"
     y="107.72"
     rx="1.06"
     ry="0.855" />
</svg>
